REM DIRINDEX 1\2,1\3,1\5,1\4\6,1\4\7
REM DIRNAME folder01,folder02,folder03,folder04,folder05,folder06,folder07
TITLE ""
FILE "Disk2Track54.mp3" MP3
  TRACK 01 AUDIO
    TITLE "2:cjc065_0981"
    INDEX 01 00:00:00
  TRACK 02 AUDIO
    TITLE "2:cjc065_0982"
    INDEX 01 00:07:58
  TRACK 03 AUDIO
    TITLE "2:cjc065_0983"
    INDEX 01 00:21:51
  TRACK 04 AUDIO
    TITLE "2:cjc065_0984"
    INDEX 01 00:34:57
  TRACK 05 AUDIO
    TITLE "0:"
    INDEX 01 00:53:06
